<svg width="756" height="751" viewBox="0 0 756 751" fill="none" xmlns="http://www.w3.org/2000/svg">
<path fill-rule="evenodd" clip-rule="evenodd" d="M0 392.636C0.892416 405.874 5.83502 411.895 28.6946 434.831C63.7733 469.97 93.612 489.067 136.837 510.969C143.793 514.485 155.417 520.092 163.564 522C163.564 421.409 193.86 328.219 257.542 256.493L289.76 222.549C294.154 218.183 297.632 215.953 302.368 211.541C314.107 200.579 341.337 181.94 354.563 173.943C373.945 162.268 392.731 153.282 414.767 144.411C429.48 138.482 470.646 124.693 486 124.348C474.261 106.767 408.085 69.5831 381.61 60.2296C332.848 42.9934 277.816 28.446 223.264 34.3293C212.212 35.5243 196.125 45.5903 186.675 51.2668C75.9239 117.73 0 236.361 0 368.942V392.636Z" fill="#00ABED"/>
<path fill-rule="evenodd" clip-rule="evenodd" d="M298.914 566.161C273.746 566.161 203.717 558.269 184 548.766C189.175 611.284 215.58 674.814 249.403 724.861C261.266 742.44 351.402 751 369.745 751H387.241C404.897 750.655 411.446 747.595 443.415 727.001C481.476 702.472 480.308 698.307 502.865 680.82L529.086 653.438C587.596 587.008 620 496.257 620 405C616.45 406.289 618.74 405.322 616.267 407.554L570.077 459.142C501.056 525.825 394.889 566.161 298.914 566.161Z" fill="#00ABED"/>
<path fill-rule="evenodd" clip-rule="evenodd" d="M528.732 137.561C532.064 142.59 536.012 145.139 540.096 149.8C583.455 199.214 613.669 258.801 628.525 324.219C645.526 399.236 639.501 474.345 613.623 546.101C607.096 564.195 605.18 565.963 598.881 580.177C587.928 604.907 571.474 628.833 555.614 650.211C543.565 666.445 531.858 678.867 517.368 692.185C498.45 709.567 496.921 712.116 474.078 729.062C468.897 732.897 458.149 738.683 455 743C464.676 742.196 479.007 737.742 487.747 734.917C523.643 723.39 541.397 716.203 574.715 696.203C583.706 690.83 591.236 685.618 599.292 679.923L623.208 661.393C728.979 566.376 781.762 435.952 743.63 281.028C734.342 243.324 714.967 201.488 694.064 170.053C691.942 166.861 691.12 165.483 689.112 162.406C686.328 158.112 686.944 157.883 681.582 155.793C640.117 139.628 590.278 136 542.835 136C534.962 136 535.829 137.401 528.732 137.561Z" fill="#00ABED"/>
<path fill-rule="evenodd" clip-rule="evenodd" d="M662 129C660.215 122.264 651.544 116.192 646.671 111.288C606.403 71.0302 557.236 38.7687 502.989 20.6217C466.84 8.52362 431.629 1.67265 396.212 0H361.801C336.565 1.16856 311.078 4.9492 284.881 11.319C283.371 11.6856 280.831 12.1668 278.543 12.8313L272 15.7183L326.384 24.2419C388.433 36.5004 460.09 72.9778 505.826 115.321C515.046 123.867 520.194 117.864 547.192 116.398C601.324 113.488 650.08 128.725 662 129Z" fill="#00ABED"/>
<path fill-rule="evenodd" clip-rule="evenodd" d="M220 716C218.489 709.536 205.028 688.655 200.885 678.455C194.635 662.984 190.629 656.543 184.379 638.298C176.229 614.575 164.92 568.435 164.92 542.878C157.48 541.136 149.353 537.446 141.959 534.351C114.763 522.96 102.561 514.983 77.4478 499.718C73.4187 497.265 71.9078 495.821 68.2679 493.185C52.8383 482 27.6335 461.806 14.2184 448.077C10.8074 444.593 9.13628 441.315 6 439C6 466.184 23.7647 507.19 34.776 532.976C61.6748 595.963 119.959 659.569 179.572 695.05C188.546 700.391 210.477 713.777 220 716Z" fill="#00ABED"/>
<path fill-rule="evenodd" clip-rule="evenodd" d="M662 129V131L664 129.319L662 129Z" fill="#00ABED"/>
</svg>
